<svg id="Layer_1" data-name="Layer 1" xmlns="http://www.w3.org/2000/svg" xmlns:xlink="http://www.w3.org/1999/xlink" viewBox="0 0 300 300"><defs><style>.cls-1{fill:url(#linear-gradient);}.cls-2{fill:#fff;}</style><linearGradient id="linear-gradient" x1="9.49" y1="31.33" x2="309.43" y2="284.66" gradientUnits="userSpaceOnUse"><stop offset="0" stop-color="#ffe185"/><stop offset="0.21" stop-color="#ffbb36"/><stop offset="0.38" stop-color="#ff5176"/><stop offset="0.52" stop-color="#f63395"/><stop offset="0.74" stop-color="#a436d2"/><stop offset="1" stop-color="#5f4eed"/></linearGradient></defs><title>Insta</title><circle class="cls-1" cx="149.99" cy="150" r="150"/><path class="cls-2" d="M196.55,93.25a10.32,10.32,0,1,0,10.31,10.31A10.32,10.32,0,0,0,196.55,93.25Z"/><path class="cls-2" d="M150.71,106.48A43.31,43.31,0,1,0,194,149.79,43.36,43.36,0,0,0,150.71,106.48Zm0,71.05a27.74,27.74,0,1,1,27.75-27.74A27.77,27.77,0,0,1,150.71,177.53Z"/><path class="cls-2" d="M185.1,237.73H114.88A52.88,52.88,0,0,1,62.06,184.9V114.68a52.88,52.88,0,0,1,52.82-52.83H185.1a52.89,52.89,0,0,1,52.83,52.83V184.9A52.89,52.89,0,0,1,185.1,237.73ZM114.88,78.4A36.32,36.32,0,0,0,78.6,114.68V184.9a36.32,36.32,0,0,0,36.28,36.28H185.1a36.31,36.31,0,0,0,36.28-36.28V114.68A36.31,36.31,0,0,0,185.1,78.4Z"/></svg>