<svg id="Layer_1" data-name="Layer 1" xmlns="http://www.w3.org/2000/svg" viewBox="0 0 300 300"><defs><style>.cls-1{fill:red;}.cls-2{fill:#fff;}</style></defs><title>Pintrest</title><path class="cls-1" d="M150,0A149.95,149.95,0,0,0,88.8,286.86c-.18-4.22-.36-8.43-.22-12.66.48-14.59,2.29-19.6,21.09-98.69a5.46,5.46,0,0,0-.43-3.29c-4.5-12.15-5.39-24.47-1.46-37,8.51-27,39.09-29,44.44-6.78,3.29,13.76-5.42,31.77-12.11,58.4-5.54,22,20.32,37.59,42.42,21.55,20.39-14.78,28.3-50.23,26.8-75.35-3-50.09-57.89-60.92-92.74-44.79-39.94,18.47-49,68-31,90.62,2.29,2.88,4.05,4.64,3.29,7.56-1.16,4.53-2.18,9.09-3.43,13.6-.93,3.35-3.74,4.57-7.13,3.2a41,41,0,0,1-16.69-12.5c-15.31-19-19.69-56.49.56-88.25,22.44-35.19,64.17-49.42,102.27-45.1C210,62.6,238.75,93.69,244.14,129c2.46,16.07.69,55.7-21.87,83.7-26,32.19-68,34.32-87.43,14.57-1.5-1.52-2.7-3.29-4.16-5.1-.21.73-.41,1.34-.57,2-9.32,36.5-10.35,44.61-19.93,61.56-1.47,2.61-3.11,5.1-4.7,7.62A150,150,0,1,0,150,0Z"/><path class="cls-2" d="M130.11,224.1c.16-.62.36-1.23.57-2,1.46,1.81,2.66,3.58,4.16,5.1,19.41,19.75,61.48,17.62,87.43-14.57,22.56-28,24.33-67.63,21.87-83.7C238.75,93.69,210,62.6,164.47,57.42c-38.1-4.32-79.83,9.91-102.27,45.1C42,134.28,46.33,171.8,61.64,190.77a41,41,0,0,0,16.69,12.5c3.39,1.37,6.2.15,7.13-3.2,1.25-4.51,2.27-9.07,3.43-13.6.76-2.92-1-4.68-3.29-7.56-18-22.63-8.95-72.15,31-90.62,34.85-16.13,89.77-5.3,92.74,44.79,1.5,25.12-6.41,60.57-26.8,75.35-22.1,16-48,.42-42.42-21.55,6.69-26.63,15.4-44.64,12.11-58.4-5.35-22.26-35.93-20.19-44.44,6.78-3.93,12.49-3,24.81,1.46,37a5.46,5.46,0,0,1,.43,3.29c-18.8,79.09-20.61,84.1-21.09,98.69-.14,4.23,0,8.44.22,12.66a147,147,0,0,0,16.68,6.42c1.59-2.52,3.23-5,4.7-7.62C119.76,268.71,120.79,260.6,130.11,224.1Z"/></svg>