<svg id="Layer_1" data-name="Layer 1" xmlns="http://www.w3.org/2000/svg" viewBox="0 0 300 300"><defs><style>.cls-1{fill:red;}.cls-2{fill:#fff;}</style></defs><title>Youtube</title><circle class="cls-1" cx="150" cy="150.5" r="149.5"/><path class="cls-2" d="M230,129.14a35.9,35.9,0,0,0-35.9-35.9h-91.8a35.9,35.9,0,0,0-35.9,35.9v42.72a35.9,35.9,0,0,0,35.9,35.9h91.8a35.9,35.9,0,0,0,35.9-35.9Zm-54,24.56-41.16,20.37c-1.61.87-7.1-.3-7.1-2.13V130.13c0-1.86,5.53-3,7.14-2.1l39.41,21.44C176,150.41,177.73,152.8,176.05,153.7Z"/></svg>